# xmcd
#
# Track frame offsets:
#	197
#	15470
#	27037
#	37897
#	49672
#	61197
#	74830
#	83572
#	96795
#	114700
#	124837
#	134687
#	149532
#	162355
#	172562
#	187447
#	205525
#	221480
#	231072
#	243962
#
# Disc length: 3475 seconds
#
# Revision: 0
# Processed by: cddbd v1.5.2PL0 Copyright (c) Steve Scherf et al.
# Submitted via: EasyCDDAExtractor 10.0.2.1
#
DISCID=150d9114
DTITLE=Various Artist - The Ultimate Irish Pub Party
DYEAR=2000
DGENRE=Country
TTITLE0=Emmet Spiceland - Mary from Dungloe
TTITLE1=Seamus Donnelly - Golden Jubilee (50 years ago)
TTITLE2=Eastwind folk group - Leaving of Liverpool
TTITLE3=Ann and Francie Brolly - Along the Faughan side
TTITLE4=Al Logan - Pretty little girl from Omagh
TTITLE5=Gloria Hunniford - Stone outside Dan Murphy's door
TTITLE6=Freddy Jonhston - Shores of America
TTITLE7=Billy McCormick - Wild rover
TTITLE8=Eugene McEldowney - Love is teasing
TTITLE9=Gloria Hunniford - The Kellys
TTITLE10=Seamus Donnelly - Hills of Connemara
TTITLE11=Luke Kelly - Black velvet band
TTITLE12=Kingpins - Bold O'Donoghue
TTITLE13=Seamus Donnelly - Roisin the beau
TTITLE14=Seamus Donnelly - Old maid in the garret
TTITLE15=Billy McCormick - Butcher boy
TTITLE16=Susan McCann - My lovely rose of Clare
TTITLE17=Oliver Kane - Wild colonial boy
TTITLE18=Dubliners - Murphy and the Bricks (sick note)
TTITLE19=Dubliners - McAlpines fusiliers
EXTD=
EXTT0=
EXTT1=
EXTT2=
EXTT3=
EXTT4=
EXTT5=
EXTT6=
EXTT7=
EXTT8=
EXTT9=
EXTT10=
EXTT11=
EXTT12=
EXTT13=
EXTT14=
EXTT15=
EXTT16=
EXTT17=
EXTT18=
EXTT19=
PLAYORDER=
